<svg xmlns="http://www.w3.org/2000/svg" viewBox="0 0 599 200" fill="none"><path d="M602.793 163.627a5.116 5.116 0 0 1-5.152-5.147c0-2.785 2.28-5.148 5.152-5.148 2.788 0 5.153 2.278 5.153 5.148 0 2.784-2.365 5.147-5.153 5.147Zm0-9.282a4.144 4.144 0 0 0-4.139 4.135 4.144 4.144 0 0 0 4.139 4.135 4.144 4.144 0 0 0 4.139-4.135 4.143 4.143 0 0 0-4.139-4.135Zm2.619 6.835h-1.183l-1.014-1.941h-1.351v1.941h-1.098v-5.654h2.703c1.182 0 1.943.76 1.943 1.857 0 .844-.507 1.434-1.183 1.687l1.183 2.11Zm-2.028-2.953c.423 0 .845-.254.845-.844 0-.675-.338-.844-.845-.844h-1.689v1.688h1.689ZM66.004 152.824H79.18v35.865h22.89v11.477H66.004v-47.342ZM115.668 176.623v-.169c0-13.587 10.981-24.642 25.594-24.642 14.612 0 25.424 10.887 25.424 24.473v.169c0 13.586-10.981 24.641-25.593 24.641-14.613 0-25.425-10.886-25.425-24.472Zm37.672 0v-.169c0-6.836-4.899-12.743-12.163-12.743-7.18 0-11.994 5.823-11.994 12.658v.169c0 6.836 4.899 12.743 12.079 12.743 7.264 0 12.078-5.823 12.078-12.658ZM182.82 179.406v-26.582h13.346v26.329c0 6.836 3.463 10.043 8.7 10.043 5.237 0 8.7-3.123 8.7-9.705v-26.667h13.346v26.245c0 15.274-8.7 21.941-22.215 21.941-13.43 0-21.877-6.751-21.877-21.604ZM247.016 152.824h18.245c16.893 0 26.776 9.705 26.776 23.376v.169c0 13.67-9.967 23.797-27.03 23.797h-17.991v-47.342Zm18.498 35.696c7.855 0 13.092-4.303 13.092-11.983v-.168c0-7.595-5.237-11.984-13.092-11.984h-5.321v24.051h5.321v.084ZM311.129 152.824h37.926v11.477h-24.834v8.101h22.469v10.886h-22.469v16.878h-13.092v-47.342ZM367.297 152.824h13.092v35.865h22.975v11.477h-36.067v-47.342ZM437.658 152.488h12.67l20.188 47.68H456.41l-3.464-8.439h-18.244l-3.379 8.439h-13.768l20.103-47.68Zm11.572 29.03-5.237-13.418-5.322 13.418h10.559ZM487.41 152.824h22.384c7.264 0 12.248 1.857 15.457 5.148 2.788 2.7 4.224 6.329 4.224 11.055v.169c0 7.257-3.886 12.067-9.714 14.514l11.319 16.54h-15.204l-9.545-14.346h-5.744v14.346H487.41v-47.426Zm21.793 22.701c4.476 0 7.01-2.194 7.01-5.57v-.169c0-3.713-2.702-5.569-7.095-5.569h-8.615v11.308h8.7ZM548.395 152.824h38.094v11.139h-25.087v7.173h22.722v10.38h-22.722v7.511h25.425v11.139h-38.432v-47.342ZM37.284 182.194c-1.858 4.135-5.743 7.088-10.811 7.088-7.18 0-12.08-5.991-12.08-12.742v-.169c0-6.835 4.815-12.658 11.995-12.658 5.406 0 9.545 3.291 11.234 7.848h13.853c-2.196-11.308-12.163-19.663-25.003-19.663C11.86 151.898.88 162.953.88 176.54v.169c0 13.586 10.812 24.472 25.424 24.472 12.502 0 22.3-8.101 24.834-18.903l-13.853-.084Z" fill="#3C4758"/><path d="m570.946 77.296-36.237-20.76-6.25-2.7-148.24 1.013v75.189h190.727V77.296Z" fill="#fff"/><path d="M504.979 123.121c1.774-6.076 1.098-11.646-1.858-15.781-2.703-3.797-7.265-5.991-12.755-6.244l-103.979-1.35a1.923 1.923 0 0 1-1.605-.845c-.338-.506-.422-1.181-.253-1.856.338-1.013 1.351-1.772 2.449-1.857l104.908-1.35c12.417-.59 25.932-10.633 30.662-22.953l5.997-15.612c.254-.675.338-1.35.169-2.026C521.957 22.7 494.674-.086 462.07-.086c-30.071 0-55.58 19.41-64.702 46.33-5.913-4.389-13.431-6.752-21.539-5.992-14.444 1.434-26.016 12.995-27.452 27.426-.338 3.713-.085 7.341.76 10.717-23.566.675-42.403 19.916-42.403 43.629 0 2.109.169 4.219.423 6.329.169 1.013 1.013 1.772 2.027 1.772h191.909c1.098 0 2.112-.759 2.45-1.856l1.436-5.148Z" fill="#3C4758"/><path d="M538.09 56.367c-.929 0-1.942 0-2.872.085-.675 0-1.267.506-1.52 1.181l-4.054 14.093c-1.774 6.076-1.098 11.645 1.858 15.78 2.703 3.798 7.264 5.992 12.754 6.245l22.131 1.35c.676 0 1.267.338 1.605.844.338.507.422 1.266.253 1.857-.338 1.012-1.351 1.772-2.449 1.856l-23.06 1.351c-12.501.59-25.931 10.632-30.662 22.953l-1.689 4.304c-.338.844.253 1.688 1.183 1.688h79.23c.929 0 1.774-.591 2.027-1.519 1.352-4.895 2.112-10.042 2.112-15.359 0-31.224-25.509-56.709-56.847-56.709Z" fill="#66758D"/></svg>