<svg xmlns="http://www.w3.org/2000/svg" viewBox="0 0 1057 200" fill="none"><path d="m547.339 19.412-2.56-7.003L546.219 0l-31.69 26.255.427.719 32.383-7.563ZM74.956 142.297a31.693 31.693 0 0 1-21.34 9.027c-24.994-.133-31.023-22.021-31.023-48.143s5.656-48.143 30.623-48.143c3.785.004 7.529.781 11.001 2.283a27.742 27.742 0 0 1 9.192 6.451l13.817 21.888h1.28V53.255h-1.28l-12.723 6.63a34.713 34.713 0 0 0-21.34-7.988C28.783 51.924 0 70.563 0 103.182s28.249 51.258 53.35 51.258a38.428 38.428 0 0 0 22.593-8.467l12.564 7.056h1.28v-33.737h-1.28l-13.55 23.006Zm92.908-90.374c-23.82 0-51.829 19.97-51.829 51.258 0 31.287 28.009 51.258 51.829 51.258 23.821 0 51.776-20.05 51.776-51.258 0-31.208-28.089-51.258-51.776-51.258Zm0 99.268c-23.847 0-29.635-20.477-29.635-47.93s5.788-47.93 29.635-47.93c23.848 0 29.529 20.317 29.529 47.85s-5.708 48.01-29.529 48.01Zm141.243-94.875h11.844v61.75l-43.88-64.306h-39.799v2.556h11.737v93.73h-11.737v2.556h28.089v-2.556h-11.897V56.451l70.741 97.989h1.2V56.317h11.791v-2.556h-28.089v2.556Zm94.135-2.556h-44.466v2.663h12.697v93.729h-12.697v2.663h44.466c21.34 0 58.685-9.453 58.685-49.98s-37.371-49.075-58.685-49.075Zm-.827 96.286h-10.883V56.291h10.883c25.688 0 37.532 18.905 37.532 46.864 0 27.959-11.87 46.892-37.532 46.892Zm147.085 0h-37.345v-49.261h18.673c6.215 4.926 12.99 19.198 12.99 19.198h1.281V79.031h-1.281s-6.748 14.166-12.99 19.198h-18.673V56.291h33.477c9.737 6.364 17.766 23.965 17.766 23.965h1.28V53.628h-85.359v2.663h12.697v93.729h-12.671v2.663h88.027v-33.285h-1.254s-8.002 21.196-16.618 30.649Zm244.154-99.694h-1.414l-42.226 99.667h-11.523v2.663h26.675v-2.663h-11.257l15.124-35.841h32.01l16.378 35.868h-12.83v2.662h46.334v-2.662h-11.87l-45.401-99.694Zm-23.474 61.243 14.405-34.376 15.284 34.296-29.689.08Zm194.966-57.835v30.622h1.147s8.883-18.64 17.499-28.066h17.228v93.73h-15.521v2.662h51.081v-2.662h-15.52V56.291h17.2c8.62 9.426 17.5 28.065 17.5 28.065h1.12V53.761h-91.734Zm-263.573 2.556h11.844v61.75l-43.881-64.306h-39.798v2.556h11.737v93.73h-11.737v2.556H657.8v-2.556h-11.871V56.451l70.742 97.989h1.2V56.317h11.79v-2.556h-28.088v2.556Zm218.706 38.264-19.472-6.71c-9.737-3.248-17.659-7.988-17.659-17.361 0-9.746 8.456-15.657 21.34-15.657a22.015 22.015 0 0 1 9.581 1.395c3.05 1.17 5.8 3.004 8.051 5.368l13.844 21.755h1.147V52.057h-1.147l-12.697 6.524a27.587 27.587 0 0 0-18.673-6.497c-18.672 0-31.209 12.275-31.342 29.503.133 13.98 9.869 21.302 21.019 25.296l19.9 7.19c10.456 3.807 17.632 8.361 17.632 18.772 0 8.894-6.482 18.639-23.714 18.773-7.789-.267-17.099-3.089-22.594-8.468l-14.537-24.284h-1.281l.694 34.163h1.254l12.723-6.923a42.73 42.73 0 0 0 23.821 8.334c21.606 0 35.691-15.231 35.691-31.953s-11.284-23.805-23.581-27.906Zm-453.471 95.487a4.426 4.426 0 0 0 2.508-4.101 4.367 4.367 0 0 0-1.307-3.222 6.865 6.865 0 0 0-4.988-1.677h-8.83v18.985h9.043c4.295 0 7.122-1.731 7.122-5.325a4.63 4.63 0 0 0-3.548-4.66Zm-8.536-5.326h4.135c1.761 0 2.667.693 2.667 1.944 0 1.411-1.173 1.997-3.014 1.997h-3.868l.08-3.941Zm8.003 9.613c0 1.411-1.12 2.05-2.961 2.05h-4.988v-4.26h4.828c2.161 0 3.094.772 3.094 2.05l.027.16Zm26.648-7.03a5.954 5.954 0 0 0-1.627-4.34 7.58 7.58 0 0 0-5.549-1.917h-8.696v18.985h4.188v-6.151h3.281l4.082 6.071h4.881l-4.641-6.79a5.907 5.907 0 0 0 4.081-5.858Zm-4.241.213c0 1.598-1.174 2.663-3.201 2.663h-4.268v-5.325h4.268c2.027 0 3.281.931 3.281 2.662h-.08Zm11.47-6.55h4.188v18.985h-4.188v-18.985Zm10.856 3.861h5.789V200h4.188v-15.151h5.788v-3.861h-15.765v3.861Zm26.302-3.994L529.147 200h4.348l1.734-4.26h8.003l1.733 4.26h4.375l-8.162-19.145h-3.868Zm-.667 11.183 2.534-6.151 2.534 6.151h-5.068Zm19.072-11.05h4.188v18.985h-4.188v-18.985Zm24.968 11.689-8.936-11.689h-3.841V200h4.108v-12.089L581.243 200h3.575v-19.012h-4.135v11.689Z" fill="#3C4758"/></svg>