<svg xmlns="http://www.w3.org/2000/svg" viewBox="0 0 592 200" fill="none"><path d="M233.465 38.02v100.792l12.924.099v-48.02h31.177V78.217h-31.177V50.694h40.55V38.02h-53.474Zm76.758 20.495c4.637 0 8.485-3.763 8.485-8.515 0-4.753-3.749-8.515-8.485-8.515-4.637 0-8.485 3.762-8.485 8.515 0 4.752 3.749 8.515 8.485 8.515Zm-6.61 12.673v67.723h12.924V71.188h-12.924Zm60.873-1.98c-17.167 0-29.105 14.554-29.105 31.881 0 17.327 11.938 31.881 29.105 31.881 7.893 0 14.306-2.97 19.042-8.02v9.01c.098 11.188-8.781 20.495-20.028 20.594h-.198c-4.143 0-8.188-1.584-11.444-3.861l-6.512 11.287c15.391 10 35.913 5.544 45.779-9.901 3.453-5.446 5.327-11.683 5.327-18.119V71.287h-12.924v6.04c-4.736-5.05-11.149-8.12-19.042-8.12Zm-16.18 31.881c0-10.792 8.189-19.208 17.66-19.208 9.472 0 17.562 8.515 17.562 19.208 0 10.792-8.189 19.109-17.562 19.109-9.471 0-17.66-8.416-17.66-19.109Zm94.714-19.208c-7.695.099-13.911 6.436-13.812 14.158v42.773h-12.925V71.089h12.925v6.237c3.946-5.247 10.063-8.217 16.673-8.118 9.077 0 16.082 4.455 20.029 11.386 4.538-7.03 12.233-11.287 20.521-11.386 14.7 0 23.876 11.88 23.876 26.633v42.971h-12.826V96.039c0-7.722-6.117-14.06-13.813-14.158-7.695.099-13.911 6.436-13.812 14.158v42.773h-13.023V96.039c0-7.722-6.117-14.06-13.813-14.158Zm136.152-3.07c-5.92-6.237-14.207-9.702-22.791-9.603-19.238 0-32.854 16.336-32.854 35.742 0 19.505 13.616 35.743 32.854 35.743 8.584 0 16.773-3.466 22.791-9.604v7.723h12.925V71.089h-12.925v7.723Zm-42.72 26.139c0-12.871 9.866-23.168 21.409-23.168 11.445.099 21.311 10.297 21.311 23.168 0 12.872-9.866 23.07-21.409 23.07-11.346.099-21.311-10.099-21.311-23.07ZM66.527 100.495c0-18.416 14.898-33.366 33.249-33.366 18.351 0 33.249 14.95 33.249 33.366s-14.898 33.367-33.249 33.367c-18.35 0-33.249-14.951-33.249-33.367Z" fill="#3C4758"/><path d="M.133 167.128c0-18.416 14.898-33.366 33.248-33.366h33.25v33.366c0 18.416-14.899 33.366-33.25 33.366-18.35 0-33.248-14.95-33.248-33.366ZM66.527.497v66.634h33.249c18.351 0 33.249-14.95 33.249-33.366S118.127.398 99.776.398H66.527v.1Z" fill="#515E72"/><path d="M.133 33.862c0 18.415 14.898 33.366 33.248 33.366h33.25V.594H33.38C15.032.495.134 15.446.134 33.862Z" fill="#3C4758"/><path d="M.133 100.494c0 18.416 14.898 33.367 33.248 33.367h33.25V67.227H33.38C15.032 67.128.134 82.08.134 100.494Z" fill="#66758D"/></svg>