<svg xmlns="http://www.w3.org/2000/svg" viewBox="0 0 417 200" fill="none"><path d="M267.417 63.915c-5.415 5.539-5.415 14.515 0 20.054l19.008 19.421c1.228 1.399 6.383 7.908 4.49 16.71-.096.453-.011.946.333 1.299a1.288 1.288 0 0 0 1.848 0l5.478-5.597 7.003-7.161c6.973-7.119 6.973-18.663 0-25.785l-18.534-18.941a13.679 13.679 0 0 0-19.626 0M381.269 180.311c5.419-5.533 5.419-14.513 0-20.048l-19.011-19.421c-1.225-1.402-6.379-7.908-4.49-16.713.1-.453.011-.947-.332-1.299a1.294 1.294 0 0 0-1.849 0l-5.474 5.597-7.007 7.164c-6.969 7.115-6.969 18.66 0 25.782l18.538 18.938a13.666 13.666 0 0 0 19.625 0ZM267.362 160.319l94.378-96.374a13.672 13.672 0 0 1 9.957-4.124 13.663 13.663 0 0 1 9.631 4.134c2.689 2.742 4.033 6.365 4.036 9.985.007 3.636-1.341 7.27-4.04 10.025l-94.378 96.374a13.632 13.632 0 0 1-9.795 4.124c-3.55 0-7.103-1.378-9.796-4.127-2.62-2.691-3.971-6.211-4.037-9.748-.062-3.716 1.287-7.448 4.044-10.269ZM22.223 87.137h-9.37C6.583 87.137 1.5 81.944 1.5 75.54c0-6.403 5.083-11.592 11.353-11.592h9.37v-8.73c0-13.546 3.368-23.643 9.665-30.074 6.29-6.43 15.057-9.645 26.742-9.645 4.895 0 9.01.366 12.68.984 5.412.904 9.346 5.751 9.346 11.362-.007 6.746-5.645 12.052-12.227 11.466a43.399 43.399 0 0 0-3.728-.165c-10.34 0-15.736 5.742-15.736 18.372v6.657h20.226c6.204 0 11.236 5.141 11.236 11.482 0 6.341-5.032 11.48-11.236 11.48H49.414v83.465c0 7.667-6.088 13.888-13.592 13.888-7.511 0-13.6-6.221-13.6-13.888V87.137ZM109.127 16.875c7.508 0 13.596 6.221 13.596 13.889v139.835c0 7.671-6.088 13.892-13.596 13.892s-13.596-6.221-13.596-13.892V30.764c0-7.668 6.088-13.889 13.596-13.889ZM230.107 112.625c.703 0 1.262-.634 1.173-1.35-2.171-17.258-12.437-30.568-29.963-30.568-16.216 0-27.73 12.446-30.587 30.527-.11.72.453 1.391 1.166 1.391h58.211Zm-86.544 8.953v-1.659c0-37.895 33.317-67.777 69.789-60.87 29.925 5.669 45.047 33.086 45.047 64.137-.003 4.315-3.426 7.804-7.648 7.804l-78.601.004c-.727 0-1.293.693-1.163 1.422 3.355 18.852 16.823 29.347 33.924 29.347 10.067 0 17.931-2.917 25.264-8.428 4.27-3.219 10.101-3.112 14.066.48 5.025 4.555 5.028 12.702-.168 17.042-10.176 8.493-23.083 13.638-39.608 13.638-34.383 0-60.903-25.491-60.903-62.917M410.473 170.32c0-1.203-.868-1.806-2.597-1.806h-3.083v3.846h2.963c.864 0 1.533-.168 2.003-.507.473-.339.714-.847.714-1.532v-.001Zm-.175 6.163c0-.794-.083-1.391-.247-1.796a1.456 1.456 0 0 0-.841-.826c-.387-.154-.96-.226-1.704-.226h-2.713v4.706h-1.372v-11.126h4.757c1.115 0 2.003.258 2.668.778.662.514.995 1.265.995 2.252 0 .716-.165 1.299-.511 1.759-.343.459-.844.771-1.509.946v.048c.665.203 1.135.528 1.413.97.271.442.408 1.183.408 2.215 0 1.052.12 1.772.353 2.162h-1.371c-.103-.144-.182-.401-.24-.751a6.636 6.636 0 0 1-.086-1.107v-.004Zm5.333-3.79c0-1.512-.36-2.91-1.087-4.199a8.235 8.235 0 0 0-2.95-3.081c-1.248-.765-2.63-1.145-4.136-1.145a7.665 7.665 0 0 0-4.061 1.131 8.261 8.261 0 0 0-2.967 3.071c-.73 1.285-1.097 2.697-1.097 4.223 0 1.511.36 2.913 1.08 4.205a8.418 8.418 0 0 0 2.957 3.082c1.241.758 2.613 1.141 4.112 1.141a7.787 7.787 0 0 0 4.112-1.141 8.29 8.29 0 0 0 2.95-3.082 8.43 8.43 0 0 0 1.087-4.205Zm-17.67 0c0-1.783.439-3.421 1.31-4.908a9.594 9.594 0 0 1 3.498-3.528 9.23 9.23 0 0 1 4.737-1.288 9.01 9.01 0 0 1 4.747 1.312 9.606 9.606 0 0 1 3.464 3.538c.857 1.487 1.283 3.109 1.283 4.874a9.738 9.738 0 0 1-1.245 4.792 9.766 9.766 0 0 1-3.409 3.592c-1.451.894-3.063 1.343-4.84 1.343-1.746 0-3.344-.439-4.798-1.312a9.634 9.634 0 0 1-3.461-3.548 9.614 9.614 0 0 1-1.286-4.867Z" fill="#3C4758"/></svg>