<svg viewBox="0 0 554 473" fill="none" xmlns="http://www.w3.org/2000/svg"><g clip-path="url(#clip0)"><path d="M401.37 75a1.37 1.37 0 00-2.74 0h2.74zm-50 182v-63.28h-2.74V257h2.74zm50-113.28V75h-2.74v68.72h2.74zM375 170.09a26.37 26.37 0 0026.37-26.37h-2.74A23.63 23.63 0 01375 167.35v2.74zm-23.63 23.63A23.63 23.63 0 01375 170.09v-2.74a26.37 26.37 0 00-26.37 26.37h2.74z" fill="#F36458"/><path d="M494.5 263h-119l36.5 50.2h45.97L494.5 263z" fill="#E8F1FE" stroke="#3C4758" stroke-width="2.74" stroke-miterlimit="10"/><path d="M225 307h-28a54 54 0 01-54-54v0a54 54 0 0154-54h204a63 63 0 0063-63v0" stroke="#F36458" stroke-width="2.74" stroke-linecap="round"/><path d="M128.64 135.98v0a62.9 62.9 0 0062.9 62.9h19.45a59.43 59.43 0 0159.43 59.43v0" stroke="#F36458" stroke-width="2.74" stroke-linecap="round"/><path d="M348.6 33.65c-129.33 0-190.7 4.93-182.16 57.04l54.01 166.58h155.63l36.24 54.93h44.77l53.3-187.48c21.32-66.99-32.45-91.07-161.78-91.07z" fill="url(#paint0_linear)"/><g clip-path="url(#clip1)"><path d="M290 58l-4.5 7.62L281 58h-15l19.5 33L305 58h-15z" fill="#F36458"/><path d="M290 58l-4.5 7.62L281 58h-7.2l11.7 19.8L297.2 58H290z" fill="#C3362C"/></g><path d="M412.69 471.94V314.38l-185-.71v158.28h185z" fill="#fff"/><path d="M167.45 99.44h13.85l-6.93-12-6.92 12z" fill="#F36458"/><path d="M309 256v-13.14c0-44.4-36.08-80.4-80.49-80.4v0A53.5 53.5 0 01175 109v0" stroke="#F36458" stroke-width="2.74" stroke-linecap="round"/><path d="M401 199.5c0 8-6.72 14.5-15 14.5-8.28 0-15-6.5-15-14.5s6.72-14.5 15-14.5c8.28 0 15 6.5 15 14.5z" fill="#fff"/><path d="M382.34 193.46v11.8l10.22-5.9-10.22-5.9z" fill="#F36458"/><rect x="352.5" y="109.5" width="74" height="41" rx="6.5" fill="#fff" stroke="#F36458" stroke-width="3" stroke-linejoin="round"/><path d="M371.18 119.56h47.04M371.18 124.07h38.93M371.18 135.82h38.93M371.18 140.33h44.33" stroke="#F36458" stroke-width="3" stroke-linecap="round"/><circle cx="362.15" cy="137.82" r="3.22" fill="#F36458"/><circle cx="362.15" cy="121.07" r="3.22" fill="#F36458"/><g clip-path="url(#clip2)"><path fill-rule="evenodd" clip-rule="evenodd" d="M128.32 102l14.43 25.33h-28.86L128.32 102z" fill="#F36458"/></g><path d="M274.9 111.27h21.36a12.82 12.82 0 110 25.65H274.9a12.82 12.82 0 110-25.65z" fill="#fff" stroke="#F36458" stroke-width="3" stroke-linejoin="round"/><path d="M282.42 124.1a6.2 6.2 0 01-6.3 6.06 6.2 6.2 0 01-6.32-6.06 6.2 6.2 0 016.31-6.07 6.2 6.2 0 016.31 6.06zM382.74 51.38l1.58.91 17.61-30.5-1.58-.92-17.61 30.5z" fill="#F36458"/><path d="M417.61 48.94h-35.23v1.83h35.23v-1.83z" fill="#F36458"/><path d="M383.07 49.97l17.63 10.17.9-1.58-17.62-10.17-.9 1.58zM398.38 23.45L416 33.63l.92-1.59-17.63-10.17-.9 1.58z" fill="#F36458"/><path d="M383.08 32.04l.91 1.58 17.62-10.18-.9-1.58-17.63 10.18z" fill="#F36458"/><path d="M398.07 21.78l17.61 30.51 1.58-.91-17.61-30.51-1.58.91zM385.6 30.82h-1.82v20.35h1.82V30.82z" fill="#F36458"/><path d="M416.23 30.82h-1.83v20.35h1.83V30.82z" fill="#F36458"/><path d="M399.59 57.99l.8 1.38 15.32-8.85-.8-1.38-15.32 8.85z" fill="#F36458"/><path d="M418.64 51.77a3.84 3.84 0 11-6.65-3.85 3.84 3.84 0 016.65 3.85zM388 34.07a3.84 3.84 0 11-6.66-3.85 3.84 3.84 0 016.66 3.85zM381.36 51.77a3.85 3.85 0 116.67-3.84 3.85 3.85 0 01-6.67 3.84zM412 34.07a3.85 3.85 0 116.67-3.84 3.85 3.85 0 01-6.67 3.84zM400 62.54a3.84 3.84 0 110-7.67 3.84 3.84 0 010 7.67zM400 27.14a3.84 3.84 0 110-7.67 3.84 3.84 0 010 7.67zM473.88 85.26l-.02-.01s-.02 0-.02-.02a.12.12 0 01-.03-.05v-.05l.88-5.44 4.17 4.17-4.33 1.85a.1.1 0 01-.04 0h-.02l-.02-.02a1.97 1.97 0 00-.57-.43zm6.05-.34l4.45 4.46c.93.93 1.4 1.4 1.56 1.93l.06.24-10.65-4.51-.02-.01c-.04-.02-.09-.04-.09-.08 0-.05.05-.07.1-.08v-.01l4.59-1.94zm5.9 8.06c-.24.43-.69.88-1.45 1.64l-5.02 5.02-6.5-1.35h-.04c-.05-.02-.11-.03-.11-.08a1.98 1.98 0 00-.76-1.37c-.02-.03-.02-.07 0-.1v-.02l1.22-7.5v-.03c0-.06.02-.13.07-.13a1.99 1.99 0 001.33-.76l.03-.03c.04-.02.08 0 .12.01l11.1 4.7zm-7.63 7.82l-8.26 8.26 1.41-8.7.01-.04c.01-.02.04-.04.07-.05h.02c.3-.13.58-.34.8-.6.02-.03.06-.06.1-.07a.1.1 0 01.03 0l5.82 1.2zM468.2 110.8l-.93.93-10.3-14.88-.01-.02c-.02-.02-.03-.04-.03-.07l.02-.04.01-.02.1-.14.01-.04c.02-.03.04-.06.07-.07h.08l11.41 2.35c.03 0 .06.02.09.04l.02.05a2.03 2.03 0 001.18 1.35c.03.01.02.05 0 .09l-.01.05-1.71 10.42zm-1.95 1.95c-.68.68-1.09 1.04-1.55 1.18-.45.14-.93.14-1.38 0-.54-.17-1-.63-1.93-1.56l-10.34-10.34 2.7-4.19a.19.19 0 01.05-.05c.03-.02.07-.02.1 0a2.8 2.8 0 001.89-.1c.03-.01.06-.02.08 0a.2.2 0 01.03.04l10.35 15.02zm-16.2-11.72l-2.37-2.37 4.69-2a.1.1 0 01.03 0c.04 0 .07.03.09.07l.15.21.01.02v.06l-2.6 4.01zm-3.42-3.42l-3-3c-.51-.51-.88-.88-1.14-1.2l9.13 1.9a1 1 0 00.03 0c.06 0 .12.02.12.07 0 .06-.07.08-.13.1l-.02.02-4.99 2.11zm-4.66-5.74c0-.2.04-.39.1-.57.17-.54.63-1 1.56-1.93l3.84-3.84 5.32 7.69c.03.04.07.09.03.12a3.21 3.21 0 00-.51.68h-.05l-10.3-2.16zm6.53-7.37l5.16-5.16 3.84 1.62 2.62 1.12c.04.01.07.03.08.06.01.02 0 .05 0 .07a2.3 2.3 0 00.6 2.1c.04.04 0 .09-.02.13l-.02.02-5.24 8.13a.15.15 0 01-.05.05c-.03.02-.07.01-.1 0-.2-.05-.42-.08-.63-.08-.19 0-.39.03-.6.07h-.06a.25.25 0 01-.05-.06l-5.53-8.07zm6.2-6.2l6.7-6.7c.92-.92 1.38-1.38 1.92-1.55a2.3 2.3 0 011.38 0c.54.17 1 .63 1.93 1.56l1.45 1.45-4.76 7.36a.19.19 0 01-.04.06c-.03.02-.07 0-.1 0a2.41 2.41 0 00-2.22.42c-.03.03-.07.02-.11 0l-6.14-2.6zm14.39-4.23l4.39 4.39-1.06 6.55v.06l-.06.04a2.1 2.1 0 00-.64.31l-.02.02c-.01.01-.02.03-.05.03l-.04-.01-6.7-2.84c-.05-.03-.1-.05-.1-.09a2.53 2.53 0 00-.36-1.05c-.03-.06-.06-.11-.04-.16l4.68-7.25zm-4.52 9.9l6.27 2.65c.03.02.07.03.09.07v.06c-.02.1-.04.2-.04.3v.18c0 .04-.04.06-.08.08h-.02l-13.97 5.95c-.02 0-.04 0-.06-.02-.03-.03 0-.08.04-.12l.01-.02 5.16-7.99v-.01c.04-.05.07-.1.12-.1h.06c.11.02.22.04.32.04a2.33 2.33 0 001.98-1.08c.04-.02.08-.01.12 0zm-7.19 10.56l14.13-6.03.04.02c.07.08.14.13.2.18l.03.02c.03.02.06.03.06.06v.03l-1.2 7.43-.01.03c-.01.06-.02.13-.07.13a1.99 1.99 0 00-1.58.97v.01l-.07.07h-.08l-11.26-2.33c-.01 0-.17-.6-.19-.6zM196.3 63.12c0-2.84-3.57-5.54-9.03-7.21 1.26-5.57.7-10-1.77-11.41a3.83 3.83 0 00-1.96-.5v1.96c.4 0 .73.08 1 .23 1.2.68 1.7 3.28 1.3 6.62-.1.82-.25 1.69-.44 2.57a42.35 42.35 0 00-5.56-.95 42.73 42.73 0 00-3.64-4.37c2.86-2.66 5.53-4.1 7.35-4.1V44c-2.4 0-5.55 1.72-8.74 4.69-3.18-2.96-6.33-4.66-8.74-4.66V46c1.81 0 4.5 1.44 7.35 4.07a41.23 41.23 0 00-3.61 4.37c-1.98.21-3.85.53-5.57.96-.2-.87-.35-1.72-.45-2.53-.41-3.35.1-5.95 1.27-6.64.27-.15.6-.22 1.01-.22v-1.96c-.73 0-1.4.16-1.98.5-2.46 1.41-3 5.83-1.74 11.38-5.44 1.68-8.98 4.36-8.98 7.2s3.56 5.54 9.02 7.2c-1.26 5.57-.7 10 1.76 11.42.57.33 1.24.49 1.97.49 2.4 0 5.56-1.72 8.74-4.69 3.19 2.96 6.34 4.65 8.74 4.65.74 0 1.4-.15 1.98-.49 2.46-1.41 3.01-5.83 1.74-11.38 5.43-1.67 8.97-4.37 8.97-7.2zm-11.4-5.84a39.5 39.5 0 01-1.18 3.46 41.08 41.08 0 00-2.4-4.15c1.24.19 2.43.41 3.58.7zm-4 9.32a46.52 46.52 0 01-2.12 3.34 45.51 45.51 0 01-7.89.01 48.16 48.16 0 01-3.94-6.8 45.89 45.89 0 013.92-6.84 45.51 45.51 0 017.9 0 48.54 48.54 0 013.93 6.8 49.02 49.02 0 01-1.8 3.5zm2.82-1.14a37.5 37.5 0 011.2 3.49c-1.14.28-2.35.51-3.6.7a47.53 47.53 0 002.4-4.19zm-8.87 9.34a36.22 36.22 0 01-2.44-2.8 54.2 54.2 0 004.84 0 34.25 34.25 0 01-2.4 2.8zm-6.51-5.15a39.5 39.5 0 01-3.6-.7c.33-1.12.74-2.29 1.2-3.45a41.02 41.02 0 002.4 4.15zm6.46-18.21c.82.84 1.63 1.77 2.44 2.8a54.12 54.12 0 00-4.84 0c.78-1.03 1.6-1.96 2.4-2.8zm-6.47 5.15a48.6 48.6 0 00-2.4 4.18 37.5 37.5 0 01-1.2-3.49c1.14-.27 2.35-.5 3.6-.69zm-7.92 10.96c-3.1-1.32-5.1-3.06-5.1-4.43 0-1.37 2-3.12 5.1-4.43.75-.32 1.58-.61 2.42-.88.5 1.71 1.16 3.5 1.97 5.33-.8 1.82-1.45 3.6-1.94 5.3a26.5 26.5 0 01-2.45-.9zm4.7 12.5c-1.18-.68-1.7-3.28-1.3-6.62.1-.83.26-1.7.45-2.58 1.71.42 3.59.75 5.56.96a42.88 42.88 0 003.64 4.37c-2.86 2.65-5.53 4.1-7.35 4.1-.4 0-.73-.08-1-.23zm20.76-6.67c.41 3.35-.1 5.94-1.28 6.64-.26.15-.6.22-1 .22-1.81 0-4.5-1.44-7.35-4.07a41.23 41.23 0 003.61-4.37c1.98-.21 3.85-.53 5.57-.96.2.88.36 1.73.45 2.54zm3.37-5.83c-.75.32-1.58.6-2.42.88-.5-1.71-1.16-3.5-1.97-5.33.8-1.82 1.45-3.6 1.94-5.3.87.27 1.69.57 2.46.9 3.1 1.31 5.1 3.05 5.1 4.42s-2.01 3.11-5.11 4.43z" fill="#F36458"/><path d="M174.82 67.12a4 4 0 100-8 4 4 0 000 8z" fill="#F36458"/><path d="M371 333.13v0a82 82 0 0082-82v-8.63" stroke="#F36458" stroke-width="2.74" stroke-linecap="round"/><path fill-rule="evenodd" clip-rule="evenodd" d="M453 202a15 15 0 00-2 29.87v-3.03c0-.85-.54-1.61-1.35-1.88a10.5 10.5 0 1113.84-9.57v.09l-.02.36-.01.12a10.07 10.07 0 01-.06.53l-.02.12c-1.29 8.47-12.32 13.23-12.38 13.26a15 15 0 102-29.87z" fill="#F36458"/><path d="M227.36 313.5v158.44h230.6V313.5H412L375.5 258l-88.5.3h-98.4l38.76 55.2z" fill="#fff"/><path d="M227.36 471.94V313.5l-38.75-55.2H287l88.49-.3 36.5 55.5h45.96v158.44m0 0H-108m565.96 0h140.45" stroke="#3C4758" stroke-width="2.74" stroke-miterlimit="10"/><path d="M287.64 356.18c0 12.87 7.81 20.52 23.46 24.56l16.58 3.9c14.8 3.47 23.82 12.06 23.82 26.05a26.88 26.88 0 01-5.52 16.86c0-13.96-7.1-21.5-24.23-26.04l-16.28-3.77c-13.04-3.02-23.1-10.08-23.1-25.28a26.75 26.75 0 015.27-16.28" fill="#F03E2F"/><path d="M335.8 407.27c7.07 4.6 10.17 11.03 10.17 20.27-5.85 7.62-16.13 11.9-28.22 11.9-20.35 0-34.59-10.18-37.75-27.88h19.54c2.51 8.13 9.17 11.9 18.07 11.9 10.85 0 18.06-5.9 18.2-16.22M297.8 375.25a21 21 0 01-7.66-8.1 21.43 21.43 0 01-2.5-10.97c5.65-7.56 15.48-12.18 27.46-12.18 20.72 0 32.71 11.13 35.67 26.8h-18.8c-2.07-6.18-7.26-10.99-16.72-10.99-10.1 0-17 5.99-17.4 15.44" fill="#F68B82"/></g><defs><clipPath id="clip0"><path fill="#fff" d="M0 0h553.59v473H0z"/></clipPath><clipPath id="clip1"><path fill="#fff" transform="translate(266 58)" d="M0 0h39v33H0z"/></clipPath><clipPath id="clip2"><path fill="#fff" transform="translate(113.9 102)" d="M0 0h29.11v25.33H0z"/></clipPath><linearGradient id="paint0_linear" x1="347.65" y1="312.56" x2="363.4" y2="135.49" gradientUnits="userSpaceOnUse"><stop offset=".03" stop-color="#FB7D24"/><stop offset=".3" stop-color="#FFE064" stop-opacity=".93"/><stop offset="1" stop-color="#FBD024" stop-opacity="0"/></linearGradient></defs></svg>