<svg xmlns="http://www.w3.org/2000/svg" viewBox="0 0 95 34" fill="none"><path d="M89.44 24.85v-3.23h.83c.36 0 .53.18.53.55v2.13c0 .37-.17.55-.53.55h-.83zm-3.16-5.83v13.76h3.16V27.3h.78l1 5.48h3c0-.12-.07-.2-.08-.25 0-.05 0-.13-.07-.24l-.14-.5c-.06-.2-.15-.53-.26-1l-.44-1.73c-.19-.71-.43-1.63-.7-2.74a2 2 0 0 0 .91-.81 2 2 0 0 0 .31-1v-3a2.28 2.28 0 0 0-.97-1.91c-.3-.22-.64-.37-1-.46a4.8 4.8 0 0 0-1.08-.12h-4.42zM68.8 8.59v-.1c-.34-2.05 0 0-1.07-5.93a21.08 21.08 0 0 0-.56-2.42.17.17 0 0 0-.07-.02.18.18 0 0 0-.18.17v.05c0 .3-.29 3.35-.3 3.5a4.43 4.43 0 0 1-.39 1.54c-.18.17-.48.42-.85.73l-.43.36a.76.76 0 0 1-.51.2 1 1 0 0 1-.51-.15l-1.72-1.24-1.34-1C58.76 2.68 56.7.93 54.41.22a5.33 5.33 0 0 0-3 0c-.42.11-.82.27-1.2.49-1 .53-1.62 1.4-2.39 1.83h-.12c-.77-.42-1.38-1.3-2.39-1.83a5.35 5.35 0 0 0-1.2-.5 5.33 5.33 0 0 0-3 0c-2.3.72-4.35 2.48-6.42 4.07l-1.33 1h-.05l-1.76 1.24a1 1 0 0 1-.51.15.8.8 0 0 1-.51-.2l-.42-.36c-.38-.31-.67-.56-.85-.73-.22-.49-.35-1.01-.39-1.54 0-.15-.28-3.2-.31-3.5V.29a.19.19 0 0 0-.18-.17.17.17 0 0 0-.13.07v.09c-.21.74-.38 1.5-.5 2.28C26.64 8.5 27 6.44 26.64 8.5v.09a.28.28 0 0 0 .18.28c1.8.79 3.6 1.57 5.42 2.34l.43.19c.2.05.4.05.59 0 .57-.1 1.13-.26 1.71-.36 1.44-.4 2.9-.63 4.39-.72 1.15 0 2.3 0 3.45-.07.15-.01.3-.04.45-.08l4.26-1.84c.05-.01.1-.01.14 0h.15l4.25 1.84c.15.04.3.07.45.08 1 0 2 .08 3 .08h.73c1.35.12 2.69.37 4 .72.58.1 1.14.26 1.72.36h.34c.12.02.25.02.37 0 2-.83 4-1.67 6-2.53a.28.28 0 0 0 .13-.3zM37.71 32.78h6.36v-2.62h-3.13v-3.14h2.08V24.4h-2.08v-2.97h3.13V19h-6.36v13.78zm38.26 0h6.36v-2.62H79.2v-3.14h2.07V24.4H79.2v-2.97h3.13V19h-6.36v13.78zM70.6 19.6a3 3 0 0 0-1-.46 4.8 4.8 0 0 0-1.13-.12h-4.4v13.76h4.4c.38 0 .76-.05 1.13-.15a3 3 0 0 0 1-.46c.3-.2.53-.47.7-.78.19-.35.28-.74.27-1.13v-2.9c0-.32-.1-.64-.31-.9a2.14 2.14 0 0 0-.93-.7c.36-.14.69-.38.93-.7.2-.25.31-.57.3-.9V21.5c.02-.4-.07-.78-.25-1.13-.18-.31-.42-.58-.71-.78zm-2 10a.5.5 0 0 1-.55.56h-.8v-3.03H68c.14-.01.29.03.4.12a.5.5 0 0 1 .15.4l.05 1.95zm0-5.58a.48.48 0 0 1-.55.54h-.8v-3H68a.48.48 0 0 1 .55.55l.05 1.9zm-14.62 1.27-1.36-6.3h-4.48v13.79h2.84v-8.8l1.71 8.8h2l2-8.77v8.77h3.16V19H55.3l-1.32 6.29zm-48.14 0-1.36-6.3H0v13.79h2.84v-8.8l1.71 8.8h1.99l2-8.77v8.77h3.17V19H7.16l-1.32 6.29zm15.99-5.54a4.38 4.38 0 0 0-4.4-.73 4.3 4.3 0 0 0-1.26.73c-.34.27-.63.61-.84 1-.19.32-.3.68-.3 1.05v8.21c.01.38.11.74.3 1.06.22.39.5.73.84 1 .38.31.8.55 1.26.73.5.17 1.04.24 1.57.22a4.6 4.6 0 0 0 2.83-1c.34-.28.63-.62.84-1 .19-.3.3-.65.33-1v-8.2c0-.38-.1-.74-.3-1.07a3.21 3.21 0 0 0-.87-1zm-2.16 10a.5.5 0 0 1-.19.43.7.7 0 0 1-.47.16.67.67 0 0 1-.47-.16.5.5 0 0 1-.2-.43v-7.73a.51.51 0 0 1 .2-.43c.14-.1.3-.16.47-.16.17 0 .34.05.47.16a.53.53 0 0 1 .2.43v7.73zm10.47-3.05L29.3 19h-3.44l2.69 13.78h3.04L34.28 19H31.1l-.97 7.7z" fill="#3C4758"/></svg>