<svg xmlns="http://www.w3.org/2000/svg" viewBox="0 0 680 200" fill="none"><path d="M0 200V0h139.232v200H0Zm119.085-20.147V20.146H20.049v159.707h99.036Z" fill="#66758D"/><path d="M231.747 89.707h-8.615c-11.289-16-22.532-31.902-33.724-49.902v49.902h-9.732v-69.61h8.613C199.58 36 210.821 51.806 221.916 69.708v-49.61h9.734v69.61h.097ZM254.327 62.196c2.773-9.122 5.547-17.61 8.029-28.341 2.774 10.731 5.257 19.219 7.835 28.34h-15.864Zm4.574-42.05-24.042 69.561h10.318l6.034-18.975h20.927l5.45 18.975h13.285l-21.948-69.61h-9.732l-.292.05ZM302.164 89.71V29.465h-18.25v-9.318h48.277v9.318h-18.249v60.243h-11.923.145ZM336.23 89.707v-69.61h11.826v69.61H336.23ZM384.705 80.83c-12.41 0-16.79-13.708-16.79-27.025 0-13.318 4.866-25.073 16.79-25.073 11.923 0 16.741 12.244 16.741 25.073 0 12.83-4.331 27.024-16.741 27.024Zm0 9.755c18.151 0 29.442-16.194 29.442-36.975 0-19.512-12.507-35.024-29.442-35.024-16.936 0-29.443 15.512-29.443 35.024 0 21.072 11.291 37.317 29.443 37.317v-.342ZM473.322 89.707h-8.615c-11.289-16-22.532-31.902-33.724-49.902v49.902h-9.733v-69.61h8.614c11.29 15.903 22.532 31.708 33.627 49.61v-49.61h9.733v69.61h.098ZM496.05 62.197c2.775-9.122 5.549-17.61 8.03-28.34 2.774 10.73 5.255 19.218 7.836 28.34h-16.06.194Zm4.575-42.049-23.992 69.61h10.317l6.035-18.976h20.926l5.45 18.976h13.286l-22.143-69.61h-9.879ZM536.102 20.098h11.826V80.34h23.506v9.366h-35.332v-69.61ZM224.396 147.952v28.731a54.541 54.541 0 0 1-19.757 4.292c-20.441 0-33.338-15.902-33.338-36.389 0-18.977 12.897-35.609 33.726-35.609a29.635 29.635 0 0 1 16.839 5.365l-3.845 8.244a25.738 25.738 0 0 0-12.701-3.658c-12.702 0-21.317 10.049-21.317 25.853 0 15.805 9.733 26.244 20.149 26.244a17.465 17.465 0 0 0 8.321-1.708v-21.365h11.923ZM266.977 119.511h-19.855v19.074h19.465v9.366h-19.465v22.488h23.408v9.365h-35.331v-69.706h31.731v9.365l.047.048ZM303.672 171.024c-12.409 0-16.741-13.707-16.741-27.023 0-13.318 4.867-25.074 16.741-25.074 11.875 0 16.79 12.244 16.79 25.074 0 12.828-4.38 27.023-16.79 27.023Zm0 9.757c18.152 0 29.443-16.196 29.443-36.976 0-19.511-12.507-35.024-29.443-35.024-16.934 0-29.442 15.513-29.442 35.024 0 20.975 11.29 37.17 29.442 37.17v-.194ZM390.298 147.952v28.731a54.546 54.546 0 0 1-19.758 4.292c-20.44 0-33.337-15.902-33.337-36.389 0-18.977 12.897-35.609 33.726-35.609a29.631 29.631 0 0 1 16.838 5.365l-3.844 8.244a25.745 25.745 0 0 0-12.702-3.658c-12.702 0-21.316 10.049-21.316 25.853 0 15.805 9.733 26.244 20.148 26.244a17.472 17.472 0 0 0 8.322-1.708v-21.365h11.923ZM413.123 119.513h5.256c5.536-.55 10.469 3.503 11.017 9.054.072.721.066 1.447-.018 2.166.876 6.705-3.838 12.852-10.527 13.73-.253.032-.508.058-.764.075l-4.867.293v-25.367l-.097.049Zm30.173 60.245-13.773-28.829a23.422 23.422 0 0 0 12.021-20.683c0-13.513-8.225-20.098-21.51-20.098h-18.542v69.61h11.923v-26.245h5.354l11.192 26.245h13.579-.244Z" fill="#3C4758"/><path d="M462.906 152.244c2.774-9.122 5.548-17.61 8.03-28.342 2.774 10.732 5.255 19.17 7.834 28.342h-16.058.194Zm4.574-42.146-23.992 69.609h10.366l6.035-18.977h20.925l5.451 18.977h13.286l-22.143-69.609h-9.928ZM521.987 110.098h-18.542v69.609h11.923v-26.196h5.355c12.524.085 22.745-10.024 22.829-22.578.002-.231 0-.461-.006-.69-.195-13.513-8.42-20.145-21.559-20.145Zm-1.704 34.389-4.866.292v-25.316h5.353c5.542-.495 10.435 3.607 10.929 9.161a10.11 10.11 0 0 1-.028 2.058c.897 6.73-3.819 12.913-10.533 13.811-.332.044-.665.075-1 .092l.145-.098ZM598.537 179.756h-11.923v-33.512h-24.722v33.512h-11.826v-69.658h11.826v26.73h24.722v-26.536h11.923V179.756ZM609.926 179.756v-69.658h11.825v69.609h-11.825v.049ZM675.283 122.782a24.958 24.958 0 0 0-12.215-3.854c-12.118 0-20.926 10.048-20.926 25.852 0 15.805 9.734 26.245 21.219 26.245a22.458 22.458 0 0 0 11.923-3.463l3.261 8.634a30.225 30.225 0 0 1-15.67 4.878c-20.44 0-33.336-15.903-33.336-36.391 0-18.975 12.798-35.609 33.53-35.609a29.16 29.16 0 0 1 15.963 5.366l-3.749 8.342Z" fill="#3C4758"/></svg>