<svg xmlns="http://www.w3.org/2000/svg" viewBox="0 0 551 200" fill="none"><path d="M66.807 196.087c-16.197-.644-29.449-5.083-39.81-13.328-1.978-1.575-6.69-6.297-8.27-8.288-4.203-5.292-7.06-10.442-8.965-16.156-5.863-17.589-2.845-40.669 8.631-66 9.827-21.686 24.99-43.194 51.443-72.983 3.897-4.384 15.5-17.203 15.576-17.203.027 0-.605 1.097-1.4 2.433-6.88 11.54-12.764 25.13-15.97 36.897-5.15 18.881-4.53 35.084 1.819 47.648 4.38 8.655 11.887 16.153 20.33 20.297 14.779 7.253 36.418 7.853 62.844 1.755 1.819-.422 91.974-24.391 200.345-53.266C461.751 29.015 550.433 5.407 550.447 5.426c.03.025-251.777 107.942-382.494 163.928-20.701 8.864-26.237 11.103-35.969 14.525-24.878 8.75-47.163 12.925-65.177 12.208Z" fill="#3C4758"/></svg>