<svg xmlns="http://www.w3.org/2000/svg" viewBox="0 0 949 200" fill="none"><path d="M145.948 155.541a63.915 63.915 0 0 0 22.041-4.087l.818 1.43c-5.03 6.909-19.179 21.257-39.217 21.257-24.863 0-42.488-17.782-42.488-44.067-.163-28.328 22.696-47.5 42.897-47.5 21.837 0 31.938 19.213 36.804 34.174v.818h-54.592v2.82c0 22.402 12.349 35.155 33.737 35.155Zm-32.142-47.295h27.316C140.1 96.309 133.23 93.08 128.854 93.08c-5.52 0-11.981 4.823-15.048 15.166ZM322.525 52.24v106.283l14.354 12.55v1.226h-60.072v-1.226l14.558-12.55v-82.86l-46.7 86.948h-3.026l-45.31-86.743v82.491l14.354 12.55v1.226h-42.038v-1.226l14.353-12.55V57.064c-1.022-1.43-11.532-16.597-12.268-17.782V38.3h38.848l43.797 82.859 42.856-82.86h40.28v.982L322.525 52.24ZM473.949 81.957v19.826c8.179-11.323 15.581-19.622 19.834-19.622a55.797 55.797 0 0 1 15.989 3.434l-8.506 25.59a41.921 41.921 0 0 0-17.175-5.682 15.424 15.424 0 0 0-10.101 3.638v50.852l17.584 10.915v1.226h-56.023v-1.226l11.327-10.302v-51.465l-10.918-8.707v-1.227l37.989-17.25ZM736.157 25.344v69.738c8.915-7.277 18.402-12.55 27.93-12.55 15.376 0 33.164 12.264 33.164 39.243 0 36.177-27.316 51.751-50.339 51.751-8.179 0-24.863-1.43-37.213-1.43h-1.063V54.939l-11.941-9.483v-1.227l39.462-18.885Zm0 77.218v56.208a16.36 16.36 0 0 0 10.714 3.433c12.963 0 22.042-12.958 22.042-32.13 0-19.172-7.688-30.945-21.224-30.945a19.349 19.349 0 0 0-11.532 3.434ZM840.838 25.344v135.429l11.327 10.096v1.227h-49.766v-1.227l11.327-10.096V54.939l-11.941-9.483v-1.227l39.053-18.885ZM915.47 155.543a63.894 63.894 0 0 0 22.042-4.088l.817 1.431c-4.866 6.868-19.015 21.216-39.216 21.216-24.863 0-42.488-17.782-42.488-44.067 0-28.287 22.859-47.5 43.06-47.5 21.837 0 31.938 19.213 36.804 34.174v.818H882.02v2.82c0 22.442 12.268 35.196 33.45 35.196Zm-31.937-47.296h27.112c-1.023-11.936-7.893-15.165-12.268-15.165-5.357 0-11.818 4.823-14.844 15.165ZM49.44 81.957v19.826c8.178-11.323 15.58-19.622 19.833-19.622a55.794 55.794 0 0 1 15.989 3.434l-8.547 25.59a41.92 41.92 0 0 0-17.175-5.682 15.423 15.423 0 0 0-10.1 3.638v50.852l17.584 10.915v1.226H11v-1.226l11.327-10.302v-51.465l-10.918-8.707v-1.227l38.03-17.25ZM587.966 146.221l-13.249-18.681h-26.131V25.754l-39.012 18.681v1.35l11.941 9.483v105.506l-11.123 10.097v1.226h48.581v-1.226l-10.509-10.097v-26.898l15.089 22.483c8.71 12.958 14.762 18.191 28.625 18.191a72.831 72.831 0 0 0 16.766-2.412v-1.226a117.575 117.575 0 0 1-20.978-24.691Z" fill="#3C4758"/><path d="M579.093 114.911c9.192 0 16.643-7.448 16.643-16.637s-7.451-16.637-16.643-16.637-16.644 7.448-16.644 16.637 7.452 16.637 16.644 16.637ZM382.642 158.729c-8.996 0-13.904-5.273-13.904-12.264a7.765 7.765 0 0 1 1.432-5.273c1.227-.613 15.13-4.864 22.286-6.499v21.91c-3 1.443-6.28 2.21-9.609 2.248l-.205-.122Zm47.313 12.386-10.877-10.383s.613-47.337.613-56.371c0-7.726-6.952-22.115-29.238-22.115-24.127 0-39.707 19.09-45.228 25.794v1.226l21.551 6.991a25.007 25.007 0 0 1 0-11.037 13.202 13.202 0 0 1 12.799-9.811 12.85 12.85 0 0 1 9.224 3.657 12.834 12.834 0 0 1 3.862 9.138v16.841l-41.956 10.138c-3.885 1.022-7.975 7.93-7.975 15.82 0 12.59 10.837 23.75 27.399 23.75 6.093 0 15.212-4.742 22.287-11.037v8.421h37.294v-1.267l.245.245ZM651.268 158.729c-8.997 0-13.904-5.273-13.904-12.264a7.77 7.77 0 0 1 1.431-5.273c1.227-.613 15.131-4.864 22.287-6.499v21.91c-3 1.443-6.281 2.21-9.61 2.248l-.204-.122Zm47.313 12.386-10.877-10.383s.613-47.337.613-56.371c0-7.726-6.952-22.115-29.239-22.115-24.126 0-39.707 19.09-45.227 25.794v1.226l21.591 7.277a25.007 25.007 0 0 1 0-11.037 13.207 13.207 0 0 1 12.8-9.811 12.848 12.848 0 0 1 9.224 3.657 12.828 12.828 0 0 1 3.862 9.138v16.842l-41.752 10.137c-3.885 1.022-7.974 7.931-7.974 15.82 0 12.59 10.836 23.75 27.398 23.75 6.093 0 15.212-4.742 22.287-11.037v8.421h37.294v-1.553.245Z" fill="#3C4758"/></svg>