<svg xmlns="http://www.w3.org/2000/svg" viewBox="0 0 166 51" fill="none"><path d="M89.947 11.136h5.76v30.721l-19.455-18.05v17.12h-5.759V10.281L89.947 28.36V11.136Zm-28.56 14.947c0 8.87-7.237 16.085-16.133 16.085-8.899 0-16.136-7.215-16.136-16.085 0-8.87 7.237-16.085 16.136-16.085 8.896 0 16.133 7.216 16.133 16.085Zm-5.913 0c0-5.689-4.593-10.318-10.247-10.318-5.655 0-10.22 4.629-10.22 10.318 0 5.69 4.59 10.318 10.22 10.318 5.654 0 10.245-4.629 10.245-10.318h.002Zm-36.187.258c-1.532-1.164-3.554-2.094-6.537-3.051-5.838-1.863-5.838-3.31-5.838-4.034 0-1.655 1.842-3.362 4.955-3.362 2.62 0 4.644 1.293 5.396 1.862l.414.311 4.645-3.13-.52-.594c-.154-.182-3.735-4.345-9.96-4.345-2.985 0-5.732.958-7.73 2.69C2.114 14.42.972 16.8.972 19.28c0 2.64 1.169 4.862 3.45 6.596 1.532 1.162 3.554 2.093 6.537 3.049 5.838 1.837 5.838 3.31 5.838 4.035 0 1.656-1.842 3.363-4.955 3.363-2.62 0-4.644-1.294-5.396-1.863l-.414-.31-4.645 3.13.52.594c.156.18 3.737 4.318 9.935 4.318 2.983 0 5.733-.956 7.73-2.69 1.998-1.733 3.138-4.137 3.138-6.593 0-2.613-1.14-4.81-3.423-6.569Zm85.576-.129c0-8.87 7.238-16.085 16.136-16.085 8.897 0 16.134 7.216 16.134 16.085 0 8.87-7.237 16.085-16.134 16.085-8.898 0-16.136-7.216-16.136-16.085Zm5.889 0c0 5.69 4.591 10.318 10.221 10.318 5.654 0 10.22-4.629 10.22-10.318s-4.591-10.32-10.22-10.32c-5.63 0-10.221 4.629-10.221 10.318v.002Zm36.187-.286c1.53 1.166 3.552 2.095 6.537 3.053 5.835 1.862 5.835 3.309 5.835 4.034 0 1.655-1.841 3.362-4.954 3.362-2.62 0-4.642-1.294-5.396-1.862l-.414-.31-4.643 3.13.518.593c.156.182 3.737 4.318 9.937 4.318 2.981 0 5.731-.956 7.728-2.689 1.998-1.731 3.14-4.111 3.14-6.594 0-2.638-1.169-4.862-3.45-6.593-1.531-1.165-3.554-2.096-6.537-3.052-5.837-1.862-5.837-3.31-5.837-4.035 0-1.654 1.842-3.36 4.954-3.36 2.62 0 4.644 1.293 5.396 1.862l.415.309 4.644-3.13-.52-.593c-.156-.182-3.736-4.318-9.935-4.318-2.983 0-5.732.956-7.73 2.687-1.998 1.734-3.137 4.138-3.137 6.596.024 2.638 1.166 4.86 3.449 6.594v-.002Z" fill="#3C4758"/></svg>