<svg width="1em" height="1em" viewBox="0 0 192 192" fill="none" xmlns="http://www.w3.org/2000/svg"><path fill-rule="evenodd" clip-rule="evenodd" d="M164.7 37.7C172.3 39.8 178.3 45.8 180.3 53.4C184 67.2 184 96 184 96C184 96 184 124.8 180.4 138.6C178.3 146.3 172.4 152.3 164.8 154.3C151 158 96 158 96 158C96 158 41 158 27.3 154.3C19.7 152.2 13.7 146.2 11.7 138.6C8 124.8 8 96 8 96C8 96 8 67.2 11.6 53.4C13.7 45.7 19.6 39.7 27.2 37.7C41 34 96 34 96 34C96 34 151 34 164.7 37.7ZM124 96L78 69.8V122.2L124 96Z" fill="#66758d"></path></svg>